PathFileType	4	(X/Y/Z)	/Users/visionmauri/1_1_1_f_Sports2D/1_1_1_f_Sports2D_m_person00.trc
DataRate	CameraRate	NumFrames	NumMarkers	Units	OrigDataRate	OrigDataStartFrame	OrigNumFrames
30.0	30.0	7	22	m	30.0	89	358
Frame#	Time	Hip			RHip			RKnee			RAnkle			RBigToe			RSmallToe			RHeel			LHip			LKnee			LAnkle			LBigToe			LSmallToe			LHeel			Neck			Head			Nose			RShoulder			RElbow			RWrist			LShoulder			LElbow			LWrist			
		X1	Y1	Z1	X2	Y2	Z2	X3	Y3	Z3	X4	Y4	Z4	X5	Y5	Z5	X6	Y6	Z6	X7	Y7	Z7	X8	Y8	Z8	X9	Y9	Z9	X10	Y10	Z10	X11	Y11	Z11	X12	Y12	Z12	X13	Y13	Z13	X14	Y14	Z14	X15	Y15	Z15	X16	Y16	Z16	X17	Y17	Z17	X18	Y18	Z18	X19	Y19	Z19	X20	Y20	Z20	X21	Y21	Z21	X22	Y22	Z22
89	2.9749766573295986	0.6245805804266145	0.8605351868182679	0.0301	0.7192193167375402	0.8912806446111946	0.0301	0.8730913543731221	0.5182013599071075	0.129	0.9902437193733088	0.19256436430236962	0.023	0.9671571503508273	0.1386040794988636	0.2179	1.031954440212943	0.14610979851058248	0.1804	1.0055509976252535	0.1314071001046155	-0.0119	0.5408332790672946	0.8182308022480899	0.0301	0.6677350233877865	0.4965711863699601	0.129	0.6879370164857317	0.4734854513662163	0.023	0.725501794183374	0.4594394030495104	0.2179	0.6778244982845326	0.40402345173488885	0.1804	0.6959434863741408	0.48383494060717624	-0.0119	0.41096519242569207	1.331724293531347	0.0008	0.3398565002534716	1.5361722040911943	0.0655	0.38799196218041	1.4190363557241872	0.1076	0.6020365473803471	1.336053998957913	-0.01275	0.7871017349143177	1.1521310064070973	0.0702	0.9345414526498592	0.9592807688310759	0.1076	0.2726975060891845	1.183069642432467	-0.01275	0.3077257298416397	0.9133037496759823	0.0702	0.33119320716622236	0.8828564174190658	0.1076
90	3.008403361344538	0.6246784719570035	0.8631722564744029	0.0301	0.7191888923305256	0.8924699386216316	0.0301	0.8706784124760111	0.5160640184013771	0.129	0.9833465142898371	0.1940786828872906	0.023	0.9604535149586426	0.13974051681807081	0.2179	1.0266146801067448	0.1452119083340897	0.1804	0.9999322516667527	0.1358613753732354	-0.0119	0.5403358644879277	0.8203991049841175	0.0301	0.6670757486998733	0.5010103845977188	0.129	0.6900807819798516	0.4753083786064203	0.023	0.7247214320534786	0.45856562887777985	0.2179	0.6807104654078876	0.40625631205205315	0.1804	0.7013538254620137	0.4777005914223984	-0.0119	0.41452466491646034	1.3308950283469365	0.0008	0.3443429763968952	1.5310716902383914	0.0655	0.39200492361040895	1.4165847492200037	0.1076	0.6050828183080779	1.3322317858078507	-0.01275	0.7898137535233933	1.152059172368458	0.0702	0.936154696795067	0.9611137800297236	0.1076	0.2753538495683926	1.1825419525883163	-0.01275	0.3116110296566567	0.9138552082875508	0.0702	0.33521013370912245	0.8830193450195727	0.1076
91	3.041830065359477	0.6240725810571525	0.8642708141862596	0.0301	0.71886196306029	0.8938700283596704	0.0301	0.86730307272214	0.5146213119103236	0.129	0.9776541188165023	0.19122205881294393	0.023	0.9594242379098596	0.1416835382682206	0.2179	1.0256573654894414	0.14481375852629483	0.1804	0.9928394305241618	0.13453820135821837	-0.0119	0.539482524313502	0.8218466815191243	0.0301	0.668424734489244	0.5019939415174927	0.129	0.6927554030725965	0.4753444986037834	0.023	0.7221084211992154	0.45696948953850053	0.2179	0.6833535166906679	0.4056649267649787	0.1804	0.7043147943138737	0.4780612066824864	-0.0119	0.4166462749316562	1.330644940007646	0.0008	0.3490419351202982	1.5260108399549277	0.0655	0.3962801612496092	1.4125795565664137	0.1076	0.6062510273873142	1.328118212926116	-0.01275	0.7929692105592006	1.1536311253240128	0.0702	0.9384866085082619	0.9616999795364097	0.1076	0.2793395132062045	1.1817571069750088	-0.01275	0.3166813926807702	0.9132632996922477	0.0702	0.34122349013308684	0.8836372381808655	0.1076
92	3.075256769374416	0.6231774480316414	0.8635744327493671	0.0301	0.7184484424349568	0.8946764000978967	0.0301	0.8648325651031307	0.5131622194123093	0.129	0.97450075677681	0.1864207386480985	0.023	0.9620767080048285	0.14537403112831176	0.2179	1.026771838887944	0.14626379056493674	0.1804	0.9870909813543454	0.1307373992464414	-0.0119	0.538752628817946	0.8230837970530408	0.0301	0.6702350679995498	0.5004052342825853	0.129	0.692705325653295	0.4778894291169895	0.023	0.7204684087834415	0.45469448274515123	0.2179	0.6860420819432111	0.4020612590099989	0.1804	0.7007762590772978	0.49242456326104633	-0.0119	0.4189239512874616	1.329858971745694	0.0008	0.35382792395653767	1.5222509668275677	0.0655	0.39962699529151874	1.4090598348082297	0.1076	0.6067758848864537	1.3248840776600088	-0.01275	0.7944983721996488	1.157770086380424	0.0702	0.9406134966832018	0.9634744241558297	0.1076	0.284977080845185	1.1820956298977925	-0.01275	0.32117719036686304	0.914616096057517	0.0702	0.3471983649842162	0.8865503778608607	0.1076
93	3.108683473389356	0.6238994873876991	0.862876936747239	0.0301	0.7184018299604541	0.8946024931566056	0.0301	0.8645418389072788	0.512158638007112	0.129	0.974135642807645	0.18350342676382955	0.023	0.9650307108476693	0.14970056058429942	0.2179	1.0280580139496884	0.14836164983639538	0.1804	0.9864269308039143	0.12899627786125303	-0.0119	0.5396144035417383	0.824102153470483	0.0301	0.6708974988466708	0.49911684111951965	0.129	0.6906247686469732	0.48360520045162636	0.023	0.719614428314658	0.4551436892255233	0.2179	0.6868780426578234	0.40210392797033706	0.1804	0.6925644872747182	0.5133943258959935	-0.0119	0.42336841212933374	1.3281126498619176	0.0008	0.3586019428108173	1.520214611156354	0.0655	0.4018016779358685	1.4079735502718727	0.1076	0.6081003170682187	1.3222587997362087	-0.01275	0.7939835586108763	1.1641624464058369	0.0702	0.9407492509832548	0.9695715045555034	0.1076	0.29122174048426597	1.184164435400204	-0.01275	0.3232301424099377	0.9202032809271921	0.0702	0.34978362996587437	0.8933454608730329	0.1076
94	3.142110177404295	0.6267822445548554	0.8632080143490177	0.0301	0.7183665023802641	0.8941212892314203	0.0301	0.8656764130828941	0.5119193413853429	0.129	0.9753087118951802	0.18347160920527836	0.023	0.9661576483324437	0.15038262385602247	0.2179	1.0281941931446974	0.14824705064831445	0.1804	0.9893204577935689	0.1291529937047846	-0.0119	0.5422456203026071	0.824531667504253	0.0301	0.6709145980746312	0.4995743237189439	0.129	0.6885290551102679	0.4919820278707303	0.023	0.7167445719887564	0.46036053219817363	0.2179	0.6852228822322797	0.4077907129973316	0.1804	0.6856461244789372	0.528787699058399	-0.0119	0.42949562748338643	1.3261985881292702	0.0008	0.3634218330965367	1.5187988955547487	0.0655	0.40466449499319257	1.407192711600536	0.1076	0.6104885623860001	1.3196749927249918	-0.01275	0.7936822381975606	1.171777838652477	0.0702	0.9383950876352528	0.9789680962811957	0.1076	0.29690020662923244	1.1868717339235917	-0.01275	0.32385580009376824	0.9263520042555377	0.0702	0.3478001877025269	0.9033412304125242	0.1076
95	3.175536881419234	0.6292786635654948	0.864176705173317	0.0301	0.7177010327091189	0.8943918127417244	0.0301	0.8665696001747947	0.5124007428819621	0.129	0.9766712411419539	0.18443593901846195	0.023	0.9656389707647683	0.14592605960739657	0.2179	1.0262144276213103	0.1457573357389263	0.1804	0.9919629647331313	0.1285419155412336	-0.0119	0.5443287519263222	0.82559935907791	0.0301	0.6714949258536625	0.5027133689204836	0.129	0.6856965485839748	0.5036805060349426	0.023	0.712121676585626	0.4656861977249868	0.2179	0.6838347108079043	0.41057878342852333	0.1804	0.6828301907333305	0.5346341872826584	-0.0119	0.43483088150161453	1.3254977876792156	0.0008	0.36920644830678967	1.5166760927141687	0.0655	0.41002487887800476	1.4045652266804927	0.1076	0.6125511244514955	1.3175817033784643	-0.01275	0.7949525893680643	1.179280234616114	0.0702	0.9354474791393813	0.9870144835469924	0.1076	0.301752768059605	1.1894895223555986	-0.01275	0.32542989392924127	0.9290350828539456	0.0702	0.3444209823415731	0.9115290551582779	0.1076
